<mxfile host="app.diagrams.net" agent="Mozilla/5.0 (Windows NT 10.0; Win64; x64) AppleWebKit/537.36 (KHTML, like Gecko) Chrome/124.0.0.0 Safari/537.36" version="24.7.14">
  <diagram id="C5RBs43oDa-KdzZeNtuy" name="Page-1">
    <mxGraphModel dx="474" dy="822" grid="1" gridSize="10" guides="1" tooltips="1" connect="1" arrows="1" fold="1" page="1" pageScale="1" pageWidth="2000" pageHeight="4000" math="0" shadow="0">
      <root>
        <mxCell id="WIyWlLk6GJQsqaUBKTNV-0" />
        <mxCell id="WIyWlLk6GJQsqaUBKTNV-1" parent="WIyWlLk6GJQsqaUBKTNV-0" />
        <mxCell id="j9sT3DzLjJvzvAmUAjQL-17" style="edgeStyle=orthogonalEdgeStyle;rounded=0;orthogonalLoop=1;jettySize=auto;html=1;entryX=0.5;entryY=0;entryDx=0;entryDy=0;" parent="WIyWlLk6GJQsqaUBKTNV-1" source="j9sT3DzLjJvzvAmUAjQL-0" target="j9sT3DzLjJvzvAmUAjQL-1" edge="1">
          <mxGeometry relative="1" as="geometry" />
        </mxCell>
        <mxCell id="j9sT3DzLjJvzvAmUAjQL-0" value="blit the screen with background of maze" style="rounded=1;whiteSpace=wrap;html=1;" parent="WIyWlLk6GJQsqaUBKTNV-1" vertex="1">
          <mxGeometry x="250" y="20" width="120" height="60" as="geometry" />
        </mxCell>
        <mxCell id="j9sT3DzLjJvzvAmUAjQL-18" style="edgeStyle=orthogonalEdgeStyle;rounded=0;orthogonalLoop=1;jettySize=auto;html=1;entryX=0.5;entryY=0;entryDx=0;entryDy=0;" parent="WIyWlLk6GJQsqaUBKTNV-1" source="j9sT3DzLjJvzvAmUAjQL-1" target="j9sT3DzLjJvzvAmUAjQL-2" edge="1">
          <mxGeometry relative="1" as="geometry" />
        </mxCell>
        <mxCell id="j9sT3DzLjJvzvAmUAjQL-1" value="create variable menu_mouse_pos and assign mouse position to it" style="rounded=1;whiteSpace=wrap;html=1;" parent="WIyWlLk6GJQsqaUBKTNV-1" vertex="1">
          <mxGeometry x="250" y="120" width="120" height="60" as="geometry" />
        </mxCell>
        <mxCell id="j9sT3DzLjJvzvAmUAjQL-19" style="edgeStyle=orthogonalEdgeStyle;rounded=0;orthogonalLoop=1;jettySize=auto;html=1;entryX=0.5;entryY=0;entryDx=0;entryDy=0;" parent="WIyWlLk6GJQsqaUBKTNV-1" source="j9sT3DzLjJvzvAmUAjQL-2" target="j9sT3DzLjJvzvAmUAjQL-3" edge="1">
          <mxGeometry relative="1" as="geometry" />
        </mxCell>
        <mxCell id="j9sT3DzLjJvzvAmUAjQL-2" value="create the text for the heading using the render built in function" style="rounded=1;whiteSpace=wrap;html=1;" parent="WIyWlLk6GJQsqaUBKTNV-1" vertex="1">
          <mxGeometry x="250" y="220" width="120" height="60" as="geometry" />
        </mxCell>
        <mxCell id="j9sT3DzLjJvzvAmUAjQL-20" style="edgeStyle=orthogonalEdgeStyle;rounded=0;orthogonalLoop=1;jettySize=auto;html=1;entryX=0.5;entryY=0;entryDx=0;entryDy=0;" parent="WIyWlLk6GJQsqaUBKTNV-1" source="j9sT3DzLjJvzvAmUAjQL-3" target="j9sT3DzLjJvzvAmUAjQL-4" edge="1">
          <mxGeometry relative="1" as="geometry" />
        </mxCell>
        <mxCell id="j9sT3DzLjJvzvAmUAjQL-3" value="create the rectangle to put the text onto&amp;nbsp;" style="rounded=1;whiteSpace=wrap;html=1;" parent="WIyWlLk6GJQsqaUBKTNV-1" vertex="1">
          <mxGeometry x="250" y="320" width="120" height="60" as="geometry" />
        </mxCell>
        <mxCell id="j9sT3DzLjJvzvAmUAjQL-21" style="edgeStyle=orthogonalEdgeStyle;rounded=0;orthogonalLoop=1;jettySize=auto;html=1;entryX=0.5;entryY=0;entryDx=0;entryDy=0;" parent="WIyWlLk6GJQsqaUBKTNV-1" source="j9sT3DzLjJvzvAmUAjQL-4" target="j9sT3DzLjJvzvAmUAjQL-5" edge="1">
          <mxGeometry relative="1" as="geometry" />
        </mxCell>
        <mxCell id="j9sT3DzLjJvzvAmUAjQL-4" value="create the one player, two player and quit buttons using the button class" style="rounded=1;whiteSpace=wrap;html=1;" parent="WIyWlLk6GJQsqaUBKTNV-1" vertex="1">
          <mxGeometry x="250" y="420" width="120" height="60" as="geometry" />
        </mxCell>
        <mxCell id="j9sT3DzLjJvzvAmUAjQL-22" style="edgeStyle=orthogonalEdgeStyle;rounded=0;orthogonalLoop=1;jettySize=auto;html=1;entryX=0.5;entryY=0;entryDx=0;entryDy=0;" parent="WIyWlLk6GJQsqaUBKTNV-1" source="j9sT3DzLjJvzvAmUAjQL-5" target="j9sT3DzLjJvzvAmUAjQL-6" edge="1">
          <mxGeometry relative="1" as="geometry" />
        </mxCell>
        <mxCell id="j9sT3DzLjJvzvAmUAjQL-5" value="for all buttons pass in the menu mouse position into the button class" style="rounded=1;whiteSpace=wrap;html=1;" parent="WIyWlLk6GJQsqaUBKTNV-1" vertex="1">
          <mxGeometry x="250" y="520" width="120" height="60" as="geometry" />
        </mxCell>
        <mxCell id="j9sT3DzLjJvzvAmUAjQL-23" style="edgeStyle=orthogonalEdgeStyle;rounded=0;orthogonalLoop=1;jettySize=auto;html=1;entryX=0.5;entryY=0;entryDx=0;entryDy=0;" parent="WIyWlLk6GJQsqaUBKTNV-1" source="j9sT3DzLjJvzvAmUAjQL-6" target="j9sT3DzLjJvzvAmUAjQL-7" edge="1">
          <mxGeometry relative="1" as="geometry" />
        </mxCell>
        <mxCell id="j9sT3DzLjJvzvAmUAjQL-6" value="for all buttons in the menu pass in the screen variabke into the text-updtae section od the button class" style="rounded=1;whiteSpace=wrap;html=1;" parent="WIyWlLk6GJQsqaUBKTNV-1" vertex="1">
          <mxGeometry x="235" y="620" width="150" height="70" as="geometry" />
        </mxCell>
        <mxCell id="j9sT3DzLjJvzvAmUAjQL-24" style="edgeStyle=orthogonalEdgeStyle;rounded=0;orthogonalLoop=1;jettySize=auto;html=1;entryX=0.5;entryY=0;entryDx=0;entryDy=0;" parent="WIyWlLk6GJQsqaUBKTNV-1" source="j9sT3DzLjJvzvAmUAjQL-7" target="j9sT3DzLjJvzvAmUAjQL-9" edge="1">
          <mxGeometry relative="1" as="geometry" />
        </mxCell>
        <mxCell id="j9sT3DzLjJvzvAmUAjQL-7" value="get events in pygame.events library" style="rounded=1;whiteSpace=wrap;html=1;" parent="WIyWlLk6GJQsqaUBKTNV-1" vertex="1">
          <mxGeometry x="250" y="730" width="120" height="60" as="geometry" />
        </mxCell>
        <mxCell id="j9sT3DzLjJvzvAmUAjQL-25" style="edgeStyle=orthogonalEdgeStyle;rounded=0;orthogonalLoop=1;jettySize=auto;html=1;entryX=0;entryY=0.5;entryDx=0;entryDy=0;" parent="WIyWlLk6GJQsqaUBKTNV-1" source="j9sT3DzLjJvzvAmUAjQL-9" target="j9sT3DzLjJvzvAmUAjQL-10" edge="1">
          <mxGeometry relative="1" as="geometry" />
        </mxCell>
        <mxCell id="j9sT3DzLjJvzvAmUAjQL-26" style="edgeStyle=orthogonalEdgeStyle;rounded=0;orthogonalLoop=1;jettySize=auto;html=1;entryX=0.5;entryY=0;entryDx=0;entryDy=0;" parent="WIyWlLk6GJQsqaUBKTNV-1" source="j9sT3DzLjJvzvAmUAjQL-9" target="j9sT3DzLjJvzvAmUAjQL-12" edge="1">
          <mxGeometry relative="1" as="geometry" />
        </mxCell>
        <mxCell id="j9sT3DzLjJvzvAmUAjQL-9" value="if event type =&amp;nbsp;&lt;div&gt;QUIT&lt;/div&gt;" style="rhombus;whiteSpace=wrap;html=1;" parent="WIyWlLk6GJQsqaUBKTNV-1" vertex="1">
          <mxGeometry x="255" y="830" width="110" height="110" as="geometry" />
        </mxCell>
        <mxCell id="j9sT3DzLjJvzvAmUAjQL-38" style="edgeStyle=orthogonalEdgeStyle;rounded=0;orthogonalLoop=1;jettySize=auto;html=1;" parent="WIyWlLk6GJQsqaUBKTNV-1" source="j9sT3DzLjJvzvAmUAjQL-10" target="j9sT3DzLjJvzvAmUAjQL-11" edge="1">
          <mxGeometry relative="1" as="geometry" />
        </mxCell>
        <mxCell id="j9sT3DzLjJvzvAmUAjQL-10" value="pygame.quit" style="rounded=1;whiteSpace=wrap;html=1;" parent="WIyWlLk6GJQsqaUBKTNV-1" vertex="1">
          <mxGeometry x="707" y="1320" width="120" height="60" as="geometry" />
        </mxCell>
        <mxCell id="j9sT3DzLjJvzvAmUAjQL-11" value="sys.exit" style="rounded=1;whiteSpace=wrap;html=1;" parent="WIyWlLk6GJQsqaUBKTNV-1" vertex="1">
          <mxGeometry x="900" y="1320" width="120" height="60" as="geometry" />
        </mxCell>
        <mxCell id="j9sT3DzLjJvzvAmUAjQL-27" style="edgeStyle=orthogonalEdgeStyle;rounded=0;orthogonalLoop=1;jettySize=auto;html=1;entryX=0.5;entryY=0;entryDx=0;entryDy=0;" parent="WIyWlLk6GJQsqaUBKTNV-1" source="j9sT3DzLjJvzvAmUAjQL-12" target="j9sT3DzLjJvzvAmUAjQL-13" edge="1">
          <mxGeometry relative="1" as="geometry" />
        </mxCell>
        <mxCell id="j9sT3DzLjJvzvAmUAjQL-12" value="if event type =&lt;div&gt;MOUSEBUTTONDOWN&lt;/div&gt;" style="rhombus;whiteSpace=wrap;html=1;" parent="WIyWlLk6GJQsqaUBKTNV-1" vertex="1">
          <mxGeometry x="223.75" y="980" width="172.5" height="160" as="geometry" />
        </mxCell>
        <mxCell id="j9sT3DzLjJvzvAmUAjQL-28" style="edgeStyle=orthogonalEdgeStyle;rounded=0;orthogonalLoop=1;jettySize=auto;html=1;entryX=0;entryY=0.5;entryDx=0;entryDy=0;" parent="WIyWlLk6GJQsqaUBKTNV-1" source="j9sT3DzLjJvzvAmUAjQL-13" target="j9sT3DzLjJvzvAmUAjQL-14" edge="1">
          <mxGeometry relative="1" as="geometry" />
        </mxCell>
        <mxCell id="j9sT3DzLjJvzvAmUAjQL-29" style="edgeStyle=orthogonalEdgeStyle;rounded=0;orthogonalLoop=1;jettySize=auto;html=1;entryX=0.5;entryY=0;entryDx=0;entryDy=0;" parent="WIyWlLk6GJQsqaUBKTNV-1" source="j9sT3DzLjJvzvAmUAjQL-13" target="j9sT3DzLjJvzvAmUAjQL-15" edge="1">
          <mxGeometry relative="1" as="geometry" />
        </mxCell>
        <mxCell id="j9sT3DzLjJvzvAmUAjQL-13" value="check for input from&amp;nbsp;&lt;div&gt;1 player button&lt;/div&gt;" style="rhombus;whiteSpace=wrap;html=1;" parent="WIyWlLk6GJQsqaUBKTNV-1" vertex="1">
          <mxGeometry x="225.62" y="1180" width="168.75" height="160" as="geometry" />
        </mxCell>
        <mxCell id="j9sT3DzLjJvzvAmUAjQL-14" value="go to sub-routine one_player and pass in variable run" style="rounded=1;whiteSpace=wrap;html=1;" parent="WIyWlLk6GJQsqaUBKTNV-1" vertex="1">
          <mxGeometry x="440" y="1230" width="120" height="60" as="geometry" />
        </mxCell>
        <mxCell id="j9sT3DzLjJvzvAmUAjQL-30" style="edgeStyle=orthogonalEdgeStyle;rounded=0;orthogonalLoop=1;jettySize=auto;html=1;" parent="WIyWlLk6GJQsqaUBKTNV-1" source="j9sT3DzLjJvzvAmUAjQL-15" target="j9sT3DzLjJvzvAmUAjQL-16" edge="1">
          <mxGeometry relative="1" as="geometry" />
        </mxCell>
        <mxCell id="e1LjJHeOZ0DpoEuvDeJz-0" style="edgeStyle=orthogonalEdgeStyle;rounded=0;orthogonalLoop=1;jettySize=auto;html=1;entryX=0.5;entryY=0;entryDx=0;entryDy=0;" edge="1" parent="WIyWlLk6GJQsqaUBKTNV-1" source="j9sT3DzLjJvzvAmUAjQL-15" target="j9sT3DzLjJvzvAmUAjQL-37">
          <mxGeometry relative="1" as="geometry" />
        </mxCell>
        <mxCell id="j9sT3DzLjJvzvAmUAjQL-15" value="check for input from&amp;nbsp;&lt;div&gt;2 player&amp;nbsp;&lt;/div&gt;" style="rhombus;whiteSpace=wrap;html=1;" parent="WIyWlLk6GJQsqaUBKTNV-1" vertex="1">
          <mxGeometry x="229.06" y="1380" width="161.87" height="160" as="geometry" />
        </mxCell>
        <mxCell id="j9sT3DzLjJvzvAmUAjQL-16" value="go to sub-routine&amp;nbsp;&lt;div&gt;two_player and pass in the variable run&lt;/div&gt;" style="rounded=1;whiteSpace=wrap;html=1;" parent="WIyWlLk6GJQsqaUBKTNV-1" vertex="1">
          <mxGeometry x="440" y="1430" width="120" height="60" as="geometry" />
        </mxCell>
        <mxCell id="j9sT3DzLjJvzvAmUAjQL-31" value="yes" style="text;html=1;align=center;verticalAlign=middle;whiteSpace=wrap;rounded=0;" parent="WIyWlLk6GJQsqaUBKTNV-1" vertex="1">
          <mxGeometry x="365" y="860" width="60" height="30" as="geometry" />
        </mxCell>
        <mxCell id="j9sT3DzLjJvzvAmUAjQL-32" value="no" style="text;html=1;align=center;verticalAlign=middle;whiteSpace=wrap;rounded=0;" parent="WIyWlLk6GJQsqaUBKTNV-1" vertex="1">
          <mxGeometry x="300" y="940" width="60" height="30" as="geometry" />
        </mxCell>
        <mxCell id="j9sT3DzLjJvzvAmUAjQL-33" value="yes" style="text;html=1;align=center;verticalAlign=middle;whiteSpace=wrap;rounded=0;" parent="WIyWlLk6GJQsqaUBKTNV-1" vertex="1">
          <mxGeometry x="300" y="1140" width="60" height="30" as="geometry" />
        </mxCell>
        <mxCell id="j9sT3DzLjJvzvAmUAjQL-34" value="yes" style="text;html=1;align=center;verticalAlign=middle;whiteSpace=wrap;rounded=0;" parent="WIyWlLk6GJQsqaUBKTNV-1" vertex="1">
          <mxGeometry x="384" y="1230" width="60" height="30" as="geometry" />
        </mxCell>
        <mxCell id="j9sT3DzLjJvzvAmUAjQL-35" value="no" style="text;html=1;align=center;verticalAlign=middle;whiteSpace=wrap;rounded=0;" parent="WIyWlLk6GJQsqaUBKTNV-1" vertex="1">
          <mxGeometry x="305" y="1340" width="60" height="30" as="geometry" />
        </mxCell>
        <mxCell id="j9sT3DzLjJvzvAmUAjQL-36" value="yes" style="text;html=1;align=center;verticalAlign=middle;whiteSpace=wrap;rounded=0;" parent="WIyWlLk6GJQsqaUBKTNV-1" vertex="1">
          <mxGeometry x="384" y="1430" width="60" height="30" as="geometry" />
        </mxCell>
        <mxCell id="j9sT3DzLjJvzvAmUAjQL-39" style="edgeStyle=orthogonalEdgeStyle;rounded=0;orthogonalLoop=1;jettySize=auto;html=1;entryX=0.5;entryY=1;entryDx=0;entryDy=0;" parent="WIyWlLk6GJQsqaUBKTNV-1" source="j9sT3DzLjJvzvAmUAjQL-37" target="j9sT3DzLjJvzvAmUAjQL-10" edge="1">
          <mxGeometry relative="1" as="geometry" />
        </mxCell>
        <mxCell id="j9sT3DzLjJvzvAmUAjQL-37" value="check for input from&lt;div&gt;quit button&lt;/div&gt;" style="rhombus;whiteSpace=wrap;html=1;" parent="WIyWlLk6GJQsqaUBKTNV-1" vertex="1">
          <mxGeometry x="230" y="1590" width="160" height="160" as="geometry" />
        </mxCell>
        <mxCell id="e1LjJHeOZ0DpoEuvDeJz-4" value="&lt;font style=&quot;font-size: 20px;&quot;&gt;maze generator&lt;/font&gt;" style="text;html=1;align=center;verticalAlign=middle;whiteSpace=wrap;rounded=0;" vertex="1" parent="WIyWlLk6GJQsqaUBKTNV-1">
          <mxGeometry x="270.93" y="1860" width="110" height="70" as="geometry" />
        </mxCell>
        <mxCell id="e1LjJHeOZ0DpoEuvDeJz-5" value="declare class for Cell and define parameters" style="rounded=1;whiteSpace=wrap;html=1;" vertex="1" parent="WIyWlLk6GJQsqaUBKTNV-1">
          <mxGeometry x="270.93" y="1960" width="120" height="60" as="geometry" />
        </mxCell>
        <mxCell id="e1LjJHeOZ0DpoEuvDeJz-6" value="define sub-routine draw_current_cell" style="rounded=1;whiteSpace=wrap;html=1;" vertex="1" parent="WIyWlLk6GJQsqaUBKTNV-1">
          <mxGeometry x="270" y="2050" width="120" height="60" as="geometry" />
        </mxCell>
        <mxCell id="e1LjJHeOZ0DpoEuvDeJz-7" value="define x and y, and then draw rectangle colour yelow in position of the tile" style="rounded=1;whiteSpace=wrap;html=1;" vertex="1" parent="WIyWlLk6GJQsqaUBKTNV-1">
          <mxGeometry x="270.93" y="2140" width="120" height="60" as="geometry" />
        </mxCell>
        <mxCell id="e1LjJHeOZ0DpoEuvDeJz-9" style="edgeStyle=orthogonalEdgeStyle;rounded=0;orthogonalLoop=1;jettySize=auto;html=1;exitX=1;exitY=0.5;exitDx=0;exitDy=0;entryX=1;entryY=0.5;entryDx=0;entryDy=0;" edge="1" parent="WIyWlLk6GJQsqaUBKTNV-1" source="e1LjJHeOZ0DpoEuvDeJz-8" target="e1LjJHeOZ0DpoEuvDeJz-8">
          <mxGeometry relative="1" as="geometry">
            <mxPoint x="440" y="2030" as="targetPoint" />
            <Array as="points" />
          </mxGeometry>
        </mxCell>
        <mxCell id="e1LjJHeOZ0DpoEuvDeJz-8" value="" style="rounded=1;whiteSpace=wrap;html=1;" vertex="1" parent="WIyWlLk6GJQsqaUBKTNV-1">
          <mxGeometry x="270" y="2230" width="120" height="60" as="geometry" />
        </mxCell>
      </root>
    </mxGraphModel>
  </diagram>
</mxfile>
